<svg xmlns="http://www.w3.org/2000/svg" width="24" height="24" viewBox="0 0 24 24">
    <path d="M17 3.1963V.5c0-.2764-.2236-.5-.5-.5h-3a.5.5 0 00-.4512.2842l-.8193 1.7134c-.019 0-.0386.0004-.0571.0004L12 2C5.9346 2 1 6.9346 1 13c0 1.879.4883 3.7402 1.4116 5.3828.0913.1621.269.2593.4527.2544a.499.499 0 00.4345-.2837l1.127-2.3564a.5012.5012 0 00.0215-.3794C4.1503 14.7612 4 13.8804 4 13c0-3.9751 2.9019-7.2964 6.75-7.9082L2.0488 23.2842a.4993.4993 0 00.0283.4824A.4987.4987 0 002.5 24h3a.4993.4993 0 00.4595-.3032L8.8295 17H13.5v.5a.5.5 0 00.8125.3906l2.5-2a.5006.5006 0 000-.7812l-2.5-2c-.1509-.1206-.3574-.1446-.5293-.06A.5006.5006 0 0013.5 13.5v.5h-3.2266L13.5 6.8296V11.5c0 .1519.0688.2954.1875.3906l2.5 2a.5008.5008 0 00.5293.06A.5006.5006 0 0017 13.5V6.7695c1.894 1.5196 3 3.7876 3 6.2305 0 2.5197-1.1737 4.7675-3 6.235V17.5a.5006.5006 0 00-.2832-.4507.4998.4998 0 00-.5293.06l-2.5 2c-.1655.1329-.2295.356-.1592.5562S13.7876 20 14 20h1.8644c-1.1466.6356-2.4632 1-3.8644 1-1.0332 0-2.0459-.1987-3.0098-.5908-.252-.1006-.5405.016-.648.2666l-.788 1.8393a.4998.4998 0 00.2695.6592C9.1563 23.7222 10.5615 24 12 24c6.0654 0 11-4.9346 11-11 0-4.1074-2.3447-7.9209-6-9.8037z" fill="#303C42"/>
</svg>
