<svg xmlns="http://www.w3.org/2000/svg" id="svg8" style="enable-background:new 0 0 48 48" version="1.1" viewBox="0 0 48 48" xml:space="preserve">
  <defs/>
    <style id="style4805" type="text/css">
    .st1{fill:none;stroke:#000;stroke-width:2}.st2,.st3,.st4{stroke:#000;stroke-linecap:round}.st2{fill:none}.st3,.st4{stroke-linejoin:round}.st4{fill:none}
  </style>
    <g id="g4933">
    <path id="path4993" d="M6 27s-3 0-3-3 3-3 3-3" class="st1" style="fill:#fca;stroke:#000;stroke-width:2"/>
        <path id="path4995" d="M42 27s3 0 3-3-3-3-3-3" class="st1" style="fill:#fca;stroke:#000;stroke-width:2"/>
        <path id="rect4989" d="M6 13.7v20.9c0 4.1 3.3 7.3 7.4 7.3h21.2c4.1 0 7.4-3.3 7.4-7.3V13.7c0-4-2.9-8.7-7-8.7l1 3s-2-3-13-3l1 3s-5-3-13-3l3 3c-5.4.1-8 1-8 5.7z" style="fill:#5e2600;fill-opacity:1;stroke:#000;stroke-width:2;stroke-linecap:round;stroke-linejoin:round"/>
        <path id="path2630" d="M24 15s-2.6-3-9.6-3H9l1 2s-1 11 0 15l2 3s2-3 4-3h8" class="st4" style="fill:#fca;fill-opacity:1"/>
        <path id="path2632" d="M24 15s2.6-3 9.6-3H39l-1 2s1 11 0 15l-2 3s-2-3-4-3h-8" class="st4" style="fill:#fca;fill-opacity:1"/>
        <path id="path5036" d="M23.9 27s1.1 0 1.1-.9c0-1-1.8-1.3-1.8-1.3" class="st2"/>
        <path id="path5038" d="M23 19s0 2 1 2 1-2 1-2" class="st2"/>
        <path id="path5040" d="M26.6 21s3.7-1.9 7.4-2.9" class="st2"/>
        <path id="path5042" d="M21.4 21s-3.7-1.9-7.4-2.9" class="st2"/>
        <circle id="path5044" cx="31" cy="21" r="1" class="st3"/>
        <circle id="circle5046" cx="17" cy="21" r="1" class="st3"/>
        <g id="g1108" style="fill:#fff">
      <path id="path5020" d="M24 31.8s3.2 0 5.5.8c0 0 2.4 1.5 1.6 3-.8 1.5-3.2 2.3-7.1 2.3" class="st4" style="fill:#fff"/>
            <path id="path5022" d="M24 31.8s-3.2 0-5.5.8c0 0-2.4 1.5-1.6 3 .8 1.5 3.2 2.3 7.1 2.3" class="st4" style="fill:#fff"/>
            <path id="path2295" d="M17 34s3 1 7 1 7-1 7-1" style="fill:#fff;stroke:#000;stroke-linecap:round;stroke-linejoin:round"/>
    </g>
  </g>
</svg>
